<svg width="512" height="512" viewBox="0 0 512 512" xmlns="http://www.w3.org/2000/svg">
  <defs>
    <linearGradient id="gradient" x1="0%" y1="0%" x2="100%" y2="100%">
      <stop offset="0%" style="stop-color:#667eea;stop-opacity:1" />
      <stop offset="100%" style="stop-color:#764ba2;stop-opacity:1" />
    </linearGradient>
  </defs>
  
  <!-- Background -->
  <rect width="512" height="512" rx="115" fill="url(#gradient)"/>
  
  <!-- Magic Lamp -->
  <g transform="translate(256, 256)">
    <!-- Lamp body -->
    <ellipse cx="0" cy="80" rx="60" ry="20" fill="#FFD700" opacity="0.8"/>
    <path d="M -40 80 C -40 80, -45 55, -35 35 C -30 20, -15 5, 0 5 C 15 5, 30 20, 35 35 C 45 55, 40 80, 40 80 Z" 
          fill="#FFA500" stroke="#FFD700" stroke-width="2"/>
    
    <!-- Lamp spout -->
    <path d="M -35 50 Q -50 45, -60 35" stroke="#FFD700" stroke-width="4" fill="none" stroke-linecap="round"/>
    
    <!-- Lamp handle -->
    <path d="M 35 50 Q 50 45, 60 35" stroke="#FFD700" stroke-width="4" fill="none" stroke-linecap="round"/>
    
    <!-- Lamp top -->
    <ellipse cx="0" cy="5" rx="25" ry="8" fill="#FFD700"/>
    <rect x="-8" y="-5" width="16" height="10" rx="2" fill="#FFD700"/>
    
    <!-- Magic sparkles -->
    <circle cx="0" cy="-30" r="6" fill="white" opacity="0.9"/>
    <circle cx="-15" cy="-20" r="4" fill="white" opacity="0.8"/>
    <circle cx="15" cy="-20" r="4" fill="white" opacity="0.8"/>
    <circle cx="-10" cy="-40" r="3" fill="white" opacity="0.7"/>
    <circle cx="10" cy="-40" r="3" fill="white" opacity="0.7"/>
    
    <!-- Star sparkles -->
    <path d="M 0,-50 L 2,-44 L 8,-44 L 3,-40 L 5,-34 L 0,-38 L -5,-34 L -3,-40 L -8,-44 L -2,-44 Z" 
          fill="white" opacity="0.9"/>
    <path d="M 20,-55 L 21,-52 L 24,-52 L 21.5,-50 L 22.5,-47 L 20,-49 L 17.5,-47 L 18.5,-50 L 16,-52 L 19,-52 Z" 
          fill="white" opacity="0.8"/>
    <path d="M -20,-55 L -19,-52 L -16,-52 L -18.5,-50 L -17.5,-47 L -20,-49 L -22.5,-47 L -21.5,-50 L -24,-52 L -21,-52 Z" 
          fill="white" opacity="0.8"/>
  </g>
  
  <!-- Text -->
  <text x="256" y="420" font-family="Arial, sans-serif" font-size="80" font-weight="bold" 
        text-anchor="middle" fill="white">Genie</text>
</svg>

